<?xml version="1.0" standalone="no"?>
<!DOCTYPE svg PUBLIC "-//W3C//DTD SVG 20010904//EN"
 "http://www.w3.org/TR/2001/REC-SVG-20010904/DTD/svg10.dtd">
<svg version="1.0" xmlns="http://www.w3.org/2000/svg"
 width="308.000000pt" height="342.000000pt" viewBox="0 0 308.000000 342.000000"
 preserveAspectRatio="xMidYMid meet">

<g transform="translate(0.000000,342.000000) scale(0.100000,-0.100000)"
fill="#000000" stroke="none">
<path d="M0 1710 l0 -1710 1540 0 1540 0 0 1710 0 1710 -1540 0 -1540 0 0
-1710z m2473 1460 l287 0 -19 -37 c-25 -50 -100 -152 -171 -233 -90 -104 -786
-1005 -808 -1047 -23 -43 -14 -77 38 -144 48 -62 353 -474 509 -688 42 -57 84
-112 94 -122 9 -11 17 -21 17 -24 0 -5 169 -229 366 -486 33 -43 77 -107 97
-141 l37 -62 -45 -14 c-70 -20 -833 -13 -859 8 -77 63 -125 115 -165 175 -148
222 -543 755 -598 808 l-30 28 -37 -57 c-21 -31 -84 -105 -139 -163 -149 -156
-409 -440 -515 -563 -51 -59 -116 -127 -145 -153 -50 -44 -52 -45 -59 -23 -3
13 -6 679 -7 1481 l-1 1457 355 0 354 0 3 -475 c2 -330 6 -477 14 -485 8 -8
38 22 110 113 135 169 425 549 504 661 79 112 138 172 182 185 20 7 95 9 188
6 85 -3 284 -5 443 -5z"/>
</g>
</svg>
